Patient4_TMGait_0pt7_01_left_22_EMG.mot
version=1
nRows=29
nColumns=33
inDegrees=no
endheader
time	1LAddLong	2LGlutMax	3LGlutMed	4LIliopsoas	5LSemiMemb	6LBicFemLong	7LRecFem	8LVastMed	9LVastLat	10LGasMed	11LTibAnt	12lTibPost	13LPeroneusLong	14LSol	15LExtDigLong	16LFlexDigLong	17RAddLong	18RGlutMax	19RGlutMed	20RIliopsoas	21RSemiMemb	22RBicFemLong	23RRecFem	24RVastMed	25RVastLat	26RGasMed	27RTibAnt	28RTibPost	29RPeroneusLong	30RSol	31RExtDigLong	32RFlexDigLong
26.518	0.012817	-0.2269	-0.054626	0.013428	-0.015106	0.008545	-0.10819	-0.008392	0.078735	-0.057373	0.020142	0.006409	0.16556	-0.061188	0.097198	0.000305	0.021667	-0.35324	-0.31433	0.017548	0.003357	0.014343	0.68741	0.14755	0.29724	-0.006409	-0.93796	-0.000916	-0.001831	-0.57297	0.000153	0.00412
26.519	0.001678	-0.21042	-0.039825	0.019226	-0.065765	-0.010376	-0.095673	0.00473	0.080261	-0.033569	0.066376	0.00946	0.11169	-0.11429	0.076294	-0.010071	0.038452	-0.22629	-0.043793	-0.13901	-0.10544	-0.027313	0.75546	0.03067	0.14465	0.012817	-0.48889	-0.002441	0.32715	-0.70084	-0.000916	-0.001984
26.52	0.00824	-0.19257	-0.0383	0.006104	-0.056305	-0.011597	-0.10086	-0.004578	0.078125	-0.037994	0.046844	0.003357	0.076447	-0.083618	0.059967	-0.015564	0.036316	-0.19653	0.46722	-0.20004	-0.18066	-0.014496	0.5957	-0.080109	0.078278	0.018768	-0.051117	-0.007172	0.4068	-0.50751	0.00061	0.001526
26.521	0.000458	-0.22293	-0.030365	0.020447	-0.015106	-0.017395	-0.084991	0.000458	0.067749	-0.039825	0.077362	0.007629	0.053864	-0.048828	-0.054169	-0.018005	0.041809	-0.24124	0.42084	-0.21774	-0.22018	-0.009003	0.090027	-0.038147	-0.13367	0.018616	-0.27908	-0.009918	0.37582	-0.22903	-0.005341	-0.002289
26.522	0.004272	-0.23331	-0.064545	0.015259	0.034943	0.03418	-0.096283	-0.000458	0.052185	-0.014648	0.103	0.005035	0.006714	-0.085297	0.001373	-0.007019	-0.007782	-0.29755	0.011139	-0.14755	0.14236	0.020447	-0.1767	0.025177	-0.35629	0.009766	-0.401	-0.008087	0.18646	-0.014038	0.000458	-0.007477
26.523	-0.001373	-0.23941	-0.060272	0.006714	0.06897	0.047302	-0.062256	-0.0177	0.05661	-0.000763	0.081177	0.007324	0.019989	-0.036011	0.08255	-0.002594	-0.028839	-0.31906	-0.29205	0.048676	0.17212	0.076599	-0.32577	0.056915	-0.66009	-0.00824	-0.33295	-0.013275	0.029602	0.13428	-0.00351	-0.015106
26.524	0.006866	-0.23315	-0.064087	0.015411	0.027618	0.066071	-0.07431	0.018768	0.04776	-0.012665	-0.023956	0.007324	0.073547	-0.016327	0.066681	-0.003204	-0.05127	-0.29312	-0.21713	0.25177	0.10864	0.056	-0.59235	0.01709	-0.45563	-0.010681	-0.099335	-0.016022	0.015717	0.28076	-0.005035	-0.017242
26.525	0.007477	-0.26977	-0.076294	0.023346	-0.011597	0.024567	-0.082855	0.011902	0.046997	-0.016479	-0.063324	0.003204	0.090332	-0.042114	0.026093	-0.005035	-0.020447	-0.29007	-0.18188	0.16312	0.12222	0.003204	-0.6308	0.00473	-0.044403	-0.00412	-0.21606	-0.009918	0.10956	0.22842	0.000153	-0.014191
26.526	0.009766	-0.22263	-0.11047	0.023956	0.014343	0.030212	-0.088501	0.005188	0.050812	-0.014496	-0.010986	0.003815	0.068512	-0.061035	-0.014954	-0.00946	-0.007935	-0.2475	-0.10269	-0.020447	0.056152	0.009003	-0.54977	-0.002441	0.097656	0.001526	-0.65521	-0.007324	0.25421	0.12558	-0.00061	-0.010071
26.527	-0.010834	-0.23712	-0.10193	0.018463	-0.017395	0.026703	-0.096283	0.001068	0.042725	-0.024261	-0.015411	0.008545	0.09903	-0.067596	0.014038	0.000458	-0.006561	-0.30304	-0.5188	-0.078735	0.041504	0.011749	-0.44205	0.041809	0.088348	-0.002136	-0.61722	-0.006866	0.050354	0.068512	0.001984	-0.014801
26.528	-0.002289	-0.24262	-0.055542	-0.009613	-0.049438	0.024109	-0.090637	0.001068	0.043793	-0.032196	-0.02594	0.008545	0.1091	-0.092773	-0.05722	-0.005798	-0.032806	-0.2327	-0.41107	-0.09201	0.079803	0.00351	-0.58243	0.13672	0.11658	-0.004425	-0.30472	-0.004578	-0.068054	0.066223	0.00061	-0.010223
26.529	0.000153	-0.2652	-0.015564	0.008087	-0.027008	0.004425	-0.089264	-0.000763	0.043335	-0.039825	-0.054169	0.007782	0.11261	-0.13718	-0.077057	0.005188	-0.012207	-0.17975	-0.37643	-0.034485	0.06012	-0.014191	-0.50156	0.10864	0.032043	-0.003052	-0.059967	-0.008545	-0.048676	0.095825	-0.001068	-0.014038
26.53	0.014191	-0.25192	-0.019073	-0.001831	0.005798	0.00885	-0.10468	0.004272	0.026703	-0.029144	0.010223	0.008392	0.080566	-0.15259	0.063019	0.007019	0.01709	-0.21545	-0.43533	0.035248	0.010529	-0.016785	-0.19882	0.017548	-0.050964	-0.014496	0.05188	-0.00473	-0.069733	0.064697	-0.001831	-0.008392
26.531	0.014343	-0.29236	-0.032806	-0.010071	0.046082	0.010071	-0.10666	0.013275	0.038147	-0.015259	0.037231	0.009003	0.035858	-0.1683	0.11673	0.008698	0.016174	-0.20462	-0.35767	0.062714	-0.033569	-0.031891	-0.12238	0.02243	-0.093689	-0.020142	0.25421	-0.009613	-0.14206	0.04837	-0.004272	-0.009308
26.532	0.025024	-0.31418	-0.061035	0.011139	0.059814	0.003052	-0.12589	-0.000916	0.036011	-0.019226	0.041046	0.001678	0.044556	-0.20874	0.057678	0.007782	0.013733	-0.20889	-0.34821	0.08667	-0.067444	-0.017242	-0.12497	-0.02533	-0.077057	-0.016785	0.23178	-0.003662	-0.18829	0.15732	-0.001678	-0.019836
26.533	0.016785	-0.31769	-0.033569	0.010071	0.042419	0.034943	-0.10849	0.001373	0.041809	-0.025635	0.028381	0.002441	0.055237	-0.080414	0.015717	0.019379	0.008698	-0.11505	-0.21271	0.058746	-0.011444	-0.013123	-0.1297	0.006714	-0.060577	-0.008392	0.21378	0.000153	-0.24612	0.15793	0.000305	-0.018158
26.534	0.009918	-0.32349	-0.02533	0.014191	0.018616	0.052948	-0.12497	0.002289	0.033875	-0.042877	0.021515	0.00412	0.058899	0.018768	-0.00351	0.014343	-0.000153	-0.16403	-0.13687	0.05127	-0.010223	-0.001526	-0.14603	0.024872	-0.015259	0.009918	0.19134	-0.010681	-0.18326	0.037384	-0.001526	-0.013275
26.535	-0.000916	-0.3183	-0.045776	0.018768	0.019073	0.036621	-0.11749	-0.007172	0.041504	-0.039673	0.033875	0.005951	0.051575	-0.004272	0.005035	0.012054	-0.003815	-0.23209	-0.25604	-0.024719	-0.044556	0.001221	-0.13031	-0.019073	0.014801	0.00473	0.14557	-0.019531	0.084839	-0.21835	0.009918	-0.009613
26.536	0	-0.35782	-0.079498	0.00473	0.013123	0.03952	-0.12268	0.009155	0.048218	-0.031433	0.001526	0.007935	0.052032	-0.10651	-0.016479	0.024567	0.007477	-0.21439	-0.070343	-0.12497	-0.080261	-0.002899	-0.10376	-0.050201	-0.010376	-0.005798	0.2005	-0.021057	0.22095	-0.28931	-0.000305	-0.013428
26.537	0.01297	-0.27908	-0.12222	0.016785	0.005035	0.0354	-0.14221	0.007324	0.039978	-0.015869	0.010681	0.010071	0.057373	-0.044861	-0.02243	0.008087	0.015411	-0.1976	-0.14603	-0.13809	-0.11643	0.007324	-0.091248	-0.091553	-0.010223	-0.023499	0.16846	-0.028839	0.17487	-0.24475	-0.00061	-0.011749
26.538	-0.007019	-0.3122	-0.10468	0.011902	0.010223	0.02533	-0.11597	0.012207	0.032196	-0.026855	0.031281	0.005493	0.027313	0.00824	-0.035095	0.005493	0.037231	-0.19608	0.059357	-0.041962	-0.087585	0.031281	-0.071716	-0.098267	0.006409	-0.025635	0.14679	-0.037689	-0.002289	-0.080414	-0.001678	-0.013428
26.539	0.004883	-0.3241	-0.06485	0.008545	0.015259	0.045624	-0.12329	0.010681	0.025787	-0.012054	0.065002	0.007935	0.01297	-0.091095	-0.049744	0.012207	0.046692	-0.19043	0.048828	-0.097961	0.009766	0.036621	-0.096741	-0.065155	-0.00473	-0.053711	0.23285	0.049896	-0.005341	0.006409	0.000305	-0.016479
26.54	-0.006256	-0.26398	-0.074158	0.011292	0.025635	0.050507	-0.14191	0.010529	0.022125	-0.028229	0.11185	0.003204	0.030518	-0.083008	0.056152	0.019379	0.023499	-0.13855	-0.13657	-0.11292	0.000458	0.027008	-0.091858	-0.088043	-0.007477	-0.095062	0.033112	0.020599	0.14267	0.20599	-0.000763	-0.012665
26.541	0.006714	-0.25375	-0.005646	0.016327	0.003967	0.052338	-0.13825	-0.003357	0.020142	-0.032196	0.012665	0.005798	0.06073	0.018463	0.045319	0.021362	-0.024109	-0.092621	-0.12848	0.015564	-0.055237	0.021667	-0.1033	-0.041656	-0.034027	-0.027924	-0.30395	0.00061	0.085754	0.4805	-0.000305	-0.020599
26.542	0.007324	-0.28061	0.020599	-0.001831	-0.015411	0.064392	-0.15778	0.003204	0.032959	-0.050507	-0.12161	0.000763	0.094299	0.044403	0.012665	0.021973	0.014801	-0.11871	-0.00412	0.13855	-0.16296	0.009308	-0.099182	-0.053558	-0.041199	0.045319	-0.36438	-0.003662	0.0177	0.59097	-0.000305	-0.015106
26.543	0.016022	-0.28061	0.007019	-0.014648	-0.036316	0.027161	-0.14572	0.009613	0.032806	-0.051422	-0.1503	-0.002594	0.038147	0.065155	0.020599	0.026398	0.041962	-0.16556	0.19684	0.25085	-0.080566	-0.028076	-0.063934	-0.10086	-0.044708	0.022888	-0.18402	-0.018921	-0.04776	0.58319	-0.000763	-0.012512
26.544	0.016174	-0.25345	-0.082855	0.005646	0.004272	0.011749	-0.15854	-0.000916	0.033112	-0.024109	-0.094757	-0.003357	0.036011	0.038452	-0.003204	0.019684	0.027313	-0.13855	0.2327	0.22079	0.056	-0.035095	-0.11917	-0.088043	-0.03006	0.005341	0.096893	0.033722	-0.054169	0.16419	-0.000916	-0.022125
26.545	0.024414	-0.19028	-0.11551	0.018158	-0.026245	-0.016937	-0.15808	0.00412	0.026093	-0.015259	-0.015564	-0.003815	0.033264	-0.037079	-0.006104	0.025024	0.001831	-0.057983	0.12848	0.11871	0.15869	-0.049286	-0.097961	-0.015411	-0.024261	0.022278	0.55145	-0.007172	-0.10452	0.30045	-0.001221	-0.026398
26.546	0.022583	-0.20706	-0.22385	0.027924	-0.070496	0.029144	-0.14526	-0.00061	0.016632	-0.033417	0.15442	0.000305	0.060577	-0.21347	0.024872	0.032501	0.008087	-0.11551	-0.2121	0.026398	0.071259	-0.073853	-0.13214	-0.043945	-0.028534	0.002289	0.77682	-0.009155	-0.16678	0.56671	-0.000916	-0.017548
